<?xml version="1.0" encoding="UTF-8"?>
<svg id="_レイヤー_2" data-name="レイヤー_2" xmlns="http://www.w3.org/2000/svg" viewBox="0 0 399.42 120.67">
  <defs>
    <style>
      .cls-1 {
        fill: #d6710f;
      }
    </style>
  </defs>
  <g id="_レイヤー_1-2" data-name="レイヤー_1">
    <path class="cls-1" d="M189.64,62.22c.24,0,.47.12.71.13s.47.15.71.16.47.18.71.19.49-.34.73-.33.48-.03.72-.02.47.26.71.26.49-.32.73-.31.47.39.7.4.49-.38.73-.37.47.39.7.4.48.12.71.13.48-.13.72-.12.48-.02.72-.01.48.03.72.04.47.24.71.25.48-.04.72-.03.5-.55.74-.55.48-.06.72-.05.46.52.7.53.48-.17.72-.16.47.18.71.19.48.04.72.04.48.08.72.09.49-.43.73-.42.47.22.71.23.48-.16.72-.15.46.54.7.55.48.03.72.04.49-.62.73-.62.47.49.71.5.48-.13.72-.13.47.33.71.33.48-.08.72-.08.48,0,.72.01.49-.3.72-.3.48-.25.72-.24.47.54.71.55.48-.17.72-.16.48-.27.72-.27.48-.09.72-.08.47.44.71.45.48.03.72.04.48.15.72.15.48-.46.72-.46.48.08.72.08.48.47.71.47.48-.65.72-.64.48.05.72.05.48.27.72.27.48.31.72.31.48-.15.72-.15.48.04.72.04.48-.22.72-.22.48-.23.72-.24.48.12.72.12.48-.06.72-.06.48.24.72.23.48-.4.71-.4.48.44.72.44.48-.29.71-.29.48.09.72.09.48-.21.71-.21.49.41.73.41.47-.23.71-.23.48.18.72.17.48.22.72.22.47-.45.71-.45.48.01.72,0,.48.08.72.08.48-.1.72-.11.48.1.72.09.47-.26.71-.27.48-.09.71-.09.48,0,.72-.02.49.33.73.32.48-.06.72-.07.49.28.73.27.45-.75.69-.76.51.68.75.66.46-.47.7-.48.47-.12.71-.13.47-.22.71-.23.51.55.75.53.46-.35.7-.36.5.29.74.27.47-.18.71-.2.49.18.73.16.47-.22.7-.24.46-.26.7-.27.5.29.74.27.46-.27.7-.29.46-.28.7-.3.48-.03.72-.05.49.13.73.11.52.47.76.45.48-.07.71-.09.46-.22.7-.24.48.02.72,0,.43-.58.67-.6.48.02.72,0,.51.29.75.27.47-.16.7-.18.46-.21.7-.23.53.51.77.48.43-.45.67-.48.48.01.72-.02.48-.05.71-.07.46-.21.7-.23.45-.27.69-.3.56.67.8.65.39-.76.63-.79.5.17.74.14.49.03.72,0,.51.22.75.19.47-.07.71-.1.44-.32.68-.35.46-.14.7-.17.46-.17.7-.2.49.08.73.04.42-.42.66-.45.59.69.82.66.41-.49.65-.53.51.14.74.1.39-.58.63-.62.51.19.75.15.43-.33.67-.37.47-.1.7-.14.49.03.73-.01.51.12.74.08.47-.08.71-.13.46-.13.7-.17.46-.14.7-.18.45-.21.68-.26.55.35.79.3.39-.51.63-.55.52.18.76.13.52.15.75.1.4-.45.63-.5.49.02.73-.03.47-.1.7-.15.5.04.73,0,.49-.02.72-.07.43-.27.67-.32.37-.53.61-.59.52.14.75.09.5.03.73-.03.54.22.77.16.33-.71.56-.77.48-.06.71-.11.48-.06.71-.12.43-.24.67-.29.57.31.8.26.39-.4.63-.46.53.14.76.08.38-.45.61-.51.55.24.79.18.4-.36.63-.42.56.25.79.19.36-.53.59-.59.44-.21.67-.27.57.29.8.22.53.13.76.07.28-.79.51-.85.52.1.76.04.4-.34.63-.4.56.21.79.14.49-.04.72-.11.38-.4.61-.47.57.24.8.17.31-.63.54-.7.51.03.74-.04.49-.04.72-.11.43-.24.66-.31.52.06.75-.01.43-.23.66-.3.54.12.77.05.43-.22.66-.3.4-.33.63-.4.42-.24.65-.32.39-.34.62-.41.4-.3.63-.37.5-.02.73-.1.52.05.75-.03.35-.45.58-.53.56.14.78.06.51,0,.74-.08.46-.14.69-.22.3-.58.53-.66.67.43.89.35.33-.49.56-.57.51,0,.74-.08.3-.56.53-.64.61.27.84.18.45-.17.67-.26.41-.26.64-.35.31-.52.54-.6.62.27.84.18.34-.44.56-.53.41-.28.63-.37.54.06.76-.03.54.05.76-.04.16-.88.38-.97.66.35.88.25.28-.57.5-.66.47-.12.69-.21.65.3.87.21.31-.5.53-.6.47-.11.69-.21.26-.6.48-.7.56.08.78-.02.57.1.79,0,.26-.6.48-.7.51-.04.73-.14.32-.46.54-.56.65.26.86.16.18-.77.39-.87.47-.11.69-.22.44-.19.66-.29.51-.05.73-.15.56.07.78-.03.26-.57.48-.68.61.16.83.06.23-.63.44-.74.72.38.93.27.27-.55.48-.66.26-.56.47-.67.51-.04.73-.15.65.23.86.12.46-.16.67-.27.38-.3.6-.41.4-.27.61-.38.3-.46.51-.57.49-.1.7-.21.36-.34.57-.45.52-.04.73-.15.39-.28.61-.39.52-.04.73-.15.12-.79.33-.9.45-.17.66-.28.58.06.79-.06.27-.51.48-.63.74.35.95.23.09-.82.3-.94.45-.18.66-.3.6.09.81-.03.22-.59.43-.71.51-.07.72-.19.61.11.82-.01.31-.42.52-.54.51-.08.71-.2.34-.38.54-.5.4-.27.6-.39.32-.41.52-.53.62.11.83-.01.15-.69.35-.81.58.04.79-.08.25-.52.45-.65.42-.23.63-.35.59.05.8-.07.47-.15.68-.28.38-.31.58-.43.2-.58.41-.71.69.2.89.07.23-.55.43-.67.22-.55.43-.68.62.08.82-.05.23-.54.43-.67.39-.29.59-.42.79.35.99.22.14-.67.34-.8.32-.38.52-.51.66.13.86,0,.47-.15.68-.28.23-.53.43-.66.57,0,.77-.13.42-.23.62-.37.34-.36.54-.49.13-.67.33-.8.61.05.81-.09.48-.15.68-.29.1-.71.3-.85.38-.3.58-.43.66.12.86-.02.16-.61.36-.75.71.17.9.04.12-.66.32-.8.62.05.82-.09.13-.65.33-.79.46-.18.66-.32.54-.07.74-.21.31-.4.5-.54.55-.06.74-.2.39-.29.58-.43.17-.59.36-.73.65.07.84-.07.21-.53.4-.67.46-.19.66-.33.15-.61.34-.76.66.08.85-.07.25-.47.45-.61.23-.5.42-.64.55-.07.74-.21.52-.12.71-.26.2-.54.39-.68.42-.25.61-.39.28-.43.47-.58.64.04.83-.11.1-.67.29-.82.31-.39.51-.54.77.02.96-.13c.08-.35-.07-.4-.07-.76s-.29-.36-.29-.72.08-.36.08-.72-.02-.36-.02-.73.41-.36.41-.73-.07-.37-.07-.73-.29-.32-.4-.67c-.19.15-.37,0-.56.15s-.09.66-.28.81-.68-.08-.87.06-.22.5-.41.65-.29.42-.48.56-.3.4-.49.55-.4.27-.59.42-.53.1-.72.25-.15.6-.34.75-.47.17-.67.32-.37.3-.57.45-.72-.15-.91,0-.32.37-.51.52-.48.16-.67.31-.37.31-.56.46-.08.71-.27.85-.32.38-.51.52-.43.23-.62.37-.42.24-.61.39-.56.05-.76.19-.42.24-.62.38-.42.23-.62.37-.31.39-.5.53-.4.27-.59.41-.48.16-.68.29-.02.81-.21.95-.79-.28-.98-.14-.12.67-.31.81-.69-.14-.88,0-.23.52-.42.65-.31.39-.51.53-.63-.07-.83.07-.07.76-.26.89-.76-.27-.96-.13-.12.69-.32.82-.3.42-.5.55-.62-.07-.82.07-.43.22-.63.35-.28.44-.48.58-.39.28-.59.42-.28.45-.48.58-.54.06-.74.19-.6-.04-.8.09-.44.2-.64.33-.11.72-.31.85-.66-.14-.86,0-.43.22-.63.34-.34.36-.54.49-.11.74-.31.86-.42.24-.62.37-.47.16-.67.29-.5.11-.7.23-.34.37-.54.49-.7-.22-.9-.09-.23.54-.44.67-.42.24-.62.37-.22.57-.43.69-.45.18-.66.3-.6-.06-.8.06-.27.49-.48.61-.39.28-.6.41-.46.16-.67.28-.57-.02-.78.1-.51.07-.72.19-.42.23-.63.35-.22.58-.43.7-.31.43-.52.55-.5.1-.71.22-.45.19-.66.3-.52.06-.73.17-.23.58-.44.69-.52.05-.73.17-.42.24-.63.35-.33.41-.54.52-.6-.1-.82,0-.18.69-.39.8-.48.13-.69.25-.43.23-.64.34-.44.2-.65.31-.5.09-.71.2-.31.45-.52.56-.41.25-.63.36-.68-.27-.89-.16-.4.27-.62.38-.44.2-.65.31-.48.11-.7.22-.28.53-.49.63-.32.45-.53.56-.73-.41-.95-.3-.28.52-.5.62-.31.46-.53.56-.58-.11-.8,0-.27.56-.49.66-.53,0-.75.1-.57-.09-.79,0-.52.02-.74.12-.17.79-.39.89-.58-.12-.8-.02-.54-.03-.76.06-.37.35-.59.44-.37.36-.59.46-.51.04-.73.14-.47.12-.69.22-.29.54-.51.63-.39.32-.61.42-.6-.18-.82-.09-.47.13-.69.22-.32.48-.54.57-.53-.01-.75.08-.38.35-.6.44-.59-.18-.82-.09-.31.51-.53.6-.34.45-.56.54-.42.25-.64.34-.49.07-.72.15-.42.24-.65.33-.51,0-.74.09-.54-.07-.77.01-.54-.08-.77,0-.43.23-.65.31-.44.19-.66.28-.35.44-.57.52-.54-.09-.77,0-.31.56-.53.64-.62-.29-.84-.21-.33.5-.56.58-.55-.11-.78-.03-.26.7-.49.78-.65-.41-.88-.33-.37.39-.6.47-.56-.17-.79-.09-.34.49-.57.57-.34.5-.57.58-.68-.53-.91-.45-.42.26-.65.34-.28.69-.51.76-.53-.09-.76-.01-.38.39-.61.47-.45.17-.68.24-.49.04-.72.11-.52-.07-.75,0-.56-.19-.79-.12-.39.36-.62.43-.51-.02-.74.05-.34.56-.57.62-.46.14-.69.2-.6-.34-.83-.28-.4.34-.63.41-.39.39-.62.45-.52-.09-.76-.03-.47.08-.71.15-.43.24-.66.31-.52-.08-.75-.02-.36.54-.59.6-.46.13-.7.19-.58-.34-.82-.28-.48.06-.71.12-.37.51-.6.57-.52-.12-.76-.06-.49,0-.73.05-.33.67-.57.72-.55-.23-.78-.17-.46.16-.69.21-.4.43-.63.48-.62-.57-.86-.52-.37.57-.6.62-.42.31-.66.37-.5-.02-.73.03-.5-.04-.74,0-.55-.27-.78-.23-.38.55-.61.6-.52-.16-.76-.11-.52-.17-.76-.12-.4.42-.64.47-.4.45-.64.49-.55-.34-.79-.29-.47.09-.71.14-.4.49-.63.53-.59-.55-.82-.5-.48.06-.71.1-.36.73-.59.77-.5-.04-.73,0-.54-.31-.78-.27-.42.38-.66.42-.45.23-.69.27-.52-.19-.75-.15-.44.29-.68.33-.44.27-.68.31-.53-.27-.76-.23-.45.25-.69.28-.47.13-.7.17-.46.19-.7.22-.59-.7-.82-.67-.37.84-.6.88-.52-.23-.75-.2-.49-.04-.73,0-.47.12-.71.15-.47.1-.71.13-.51-.21-.75-.18-.47.13-.7.16-.46.21-.7.24-.5-.16-.74-.14-.42.55-.66.58-.54-.5-.78-.48-.41.63-.65.66-.47.09-.71.12-.52-.37-.76-.34-.49-.05-.73-.02-.46.22-.7.24-.46.23-.7.25-.48.02-.72.04-.52-.47-.76-.44-.42.65-.66.67-.49-.13-.73-.11-.48-.03-.72,0-.45.4-.69.42-.5-.17-.73-.15-.52-.5-.76-.48-.43.61-.67.63-.48.03-.72.05-.47.2-.71.21-.49-.14-.73-.12-.51-.4-.75-.38-.45.45-.69.47-.51-.49-.75-.47-.47.13-.71.14-.47.11-.71.13-.46.4-.7.41-.5-.38-.74-.36-.47.13-.71.14-.48.1-.71.11-.49-.29-.73-.28-.45.69-.69.71-.5-.41-.74-.4-.49-.28-.73-.27-.48.1-.71.11-.46.42-.7.43-.49-.32-.73-.32-.47.2-.71.21-.47.35-.71.35-.48.05-.72.06-.49-.26-.73-.26-.48-.21-.72-.2-.47.43-.71.44-.48.07-.72.07-.49-.67-.73-.67-.48.13-.72.14-.48-.06-.72-.06-.48.08-.72.08-.48-.01-.72,0-.48-.01-.72,0-.47.34-.71.34-.48.08-.72.08-.48.22-.72.22-.48-.07-.72-.07-.48-.18-.72-.17-.48.19-.72.19-.48-.46-.72-.46-.48-.2-.72-.2-.48.56-.72.56-.48,0-.72,0-.48-.49-.72-.5-.48.57-.72.57-.48-.5-.72-.5-.48.12-.72.12-.48.09-.72.08-.48.31-.72.31-.47-.55-.71-.56-.48-.08-.72-.08-.48,0-.72,0-.48-.03-.72-.03-.48.22-.72.22-.47-.23-.71-.23-.48.11-.72.11-.48-.09-.72-.09-.49.33-.72.33-.48.02-.72.01-.49.3-.72.3-.47-.37-.71-.37-.48.16-.72.15-.47-.56-.7-.56-.48-.04-.72-.05-.48.04-.72.03-.48.15-.72.14-.48-.13-.71-.14-.49.48-.73.48-.48-.14-.71-.15-.47-.38-.71-.39-.49.48-.73.47-.48.12-.72.12-.46-.68-.7-.69-.48-.04-.72-.04-.49.45-.73.44-.48.15-.72.14-.48.04-.72.03-.46-.59-.7-.6-.48-.09-.71-.1-.48-.04-.72-.04-.48.1-.72.09-.48.02-.72.01-.49.2-.72.19-.48.16-.72.15-.46-.57-.7-.58-.49.44-.73.43-.47-.12-.71-.13-.48-.05-.71-.06-.49.21-.72.2-.47-.1-.71-.11-.49.23-.72.22-.47-.12-.71-.13c-.24,0-.48-.15-.72-.16s-.47-.29-.71-.3-.48-.12-.72-.13-.49.37-.73.36-.46-.53-.7-.54-.51.69-.75.68-.47-.42-.71-.43-.47-.3-.71-.3-.48.05-.72.04-.49.26-.73.25-.47-.19-.71-.2-.5.43-.74.42-.46-.57-.7-.58-.49.42-.74.41-.47-.36-.71-.37-.48-.09-.72-.1-.48.02-.72.02-.48.04-.72.03-.49.17-.73.17-.48.13-.72.12-.47-.47-.71-.48-.49.21-.73.21-.49.21-.73.21-.48-.02-.72-.03-.49.18-.73.18-.46-.61-.7-.61-.49.36-.73.36-.48.14-.72.13-.48.02-.72.01-.47-.32-.71-.33-.48-.07-.72-.07-.48-.15-.72-.15-.48.05-.72.05-.49.33-.73.33-.47-.33-.71-.33-.48-.3-.72-.3-.49.49-.73.48-.48-.09-.72-.1-.48.3-.72.3-.48.04-.72.04-.48-.16-.72-.17-.48-.31-.72-.31-.48.32-.72.32-.48-.29-.72-.29-.48.44-.72.43-.48-.35-.72-.35-.48-.26-.72-.26-.48.51-.72.51-.48-.06-.72-.06-.48-.52-.72-.52-.48.53-.72.53-.48-.19-.72-.19-.48.17-.72.17-.48-.09-.72-.09-.48,0-.72.01-.48-.05-.72-.05-.48.12-.72.12-.48.14-.72.15-.48-.08-.72-.08-.48-.12-.72-.11-.48-.23-.72-.22-.48.15-.72.15-.47.25-.71.26-.49-.51-.73-.51-.46.61-.7.62-.49-.3-.73-.3-.49-.23-.73-.22-.47.31-.71.32-.48.01-.72.02-.49-.37-.73-.36-.47.25-.71.26-.47.35-.71.36-.49-.32-.73-.31-.46.51-.7.52-.5-.34-.74-.33-.47.29-.7.3-.49-.28-.73-.27-.48.05-.72.07-.48.04-.72.05-.46.37-.7.39-.51-.48-.75-.47-.45.54-.68.56-.53-.71-.77-.69-.44.52-.68.54-.49-.12-.73-.1-.5-.3-.74-.28-.42.73-.66.75-.51-.31-.75-.29-.49-.15-.73-.13-.48.07-.71.09-.49-.07-.73-.05-.42.66-.66.69-.54-.59-.78-.57-.48.07-.71.09-.46.22-.7.25-.44.37-.68.39-.5-.19-.74-.17-.47.13-.71.16-.5-.15-.74-.12-.43.47-.67.5-.48.05-.71.08-.48,0-.72.03-.54-.47-.78-.44-.46.18-.7.21-.44.3-.68.33-.53-.33-.77-.3-.41.56-.65.59-.54-.37-.77-.33-.41.55-.64.59-.49-.05-.73-.02-.47.11-.71.14-.45.24-.68.28-.55-.43-.79-.39-.44.31-.67.35-.51-.12-.74-.08-.41.47-.64.51-.48.02-.72.06-.47.07-.71.11-.51-.14-.75-.1-.44.28-.67.32-.44.24-.68.29-.55-.34-.79-.3-.4.48-.63.52-.51-.11-.74-.06-.5-.05-.73,0-.39.48-.63.53-.5-.04-.73.01-.49-.02-.73.03-.45.19-.68.24-.51-.1-.75-.05-.52-.13-.75-.08-.33.73-.56.79-.56-.29-.79-.24-.43.25-.67.31-.46.13-.7.18-.54-.19-.77-.13-.4.37-.64.42-.41.35-.64.41-.57-.32-.81-.26-.33.64-.56.7-.46.14-.69.2-.51-.06-.74,0-.54-.17-.77-.11-.51-.06-.74,0-.39.4-.62.46-.55-.18-.78-.12-.39.38-.62.44-.44.19-.67.26-.55-.16-.78-.09-.33.57-.56.64-.52-.08-.75-.01-.4.34-.63.41-.47.12-.69.19-.49.05-.71.12-.39.36-.62.43-.61-.34-.84-.27-.4.32-.63.39-.51-.01-.74.06-.28.66-.51.74-.6-.29-.83-.21-.29.62-.52.7-.4.32-.62.4-.48.08-.7.16-.5.01-.73.09-.52-.03-.74.06-.4.31-.62.4-.39.33-.61.41-.46.14-.68.23-.64-.35-.87-.26-.47.12-.69.21-.4.3-.62.38-.29.58-.51.67-.54-.05-.76.04-.31.51-.54.59-.45.15-.68.24-.52,0-.74.08-.41.25-.63.35-.55-.08-.78,0-.5.05-.72.14-.49.09-.71.18-.33.45-.55.54-.54-.03-.75.07-.3.51-.52.61-.53,0-.74.1-.46.15-.68.25-.22.68-.44.78-.41.26-.62.36-.74-.45-.96-.35-.28.54-.49.64-.44.18-.66.28-.55-.04-.77.07-.19.71-.41.81-.38.31-.6.42-.76-.45-.97-.34-.42.24-.63.35-.44.2-.65.31-.28.51-.49.62-.51.05-.73.16-.36.36-.57.47-.31.43-.53.54-.68-.26-.89-.15-.36.34-.57.46-.29.48-.5.59-.61-.13-.82-.01-.09.83-.31.94-.66-.2-.87-.09-.16.69-.37.81-.54.02-.74.14-.52.06-.72.18-.25.53-.46.65-.56-.02-.77.1-.31.42-.52.54-.44.2-.64.32-.57-.02-.78.1-.49.12-.69.24-.14.7-.35.82-.68-.2-.89-.08-.41.26-.61.38-.35.35-.56.47-.27.48-.47.61-.43.22-.63.35-.41.25-.61.38-.38.3-.58.43-.33.37-.53.5-.38.29-.59.42-.51.1-.71.23-.31.4-.51.53-.55.04-.75.17-.19.59-.39.72-.6-.04-.8.1-.59-.02-.79.11-.15.63-.35.77-.5.12-.7.26-.55.05-.75.18.03.88-.17,1.02-.47.17-.66.3-.34.35-.54.49-.41.25-.6.39-.53.08-.73.22-.37.3-.57.44-.47.17-.66.31-.47.18-.66.32-.15.61-.34.76-.61-.02-.8.12-.11.67-.3.81-.66-.09-.86.05-.3.4-.49.54-.41.25-.61.39-.48.17-.67.31-.37.31-.56.45-.35.33-.54.48-.22.5-.41.64-.63-.03-.82.11-.03.74-.22.89-.59.02-.78.17-.28.42-.47.57-.36.32-.55.47-.58.04-.77.19-.45.21-.63.36-.34.34-.53.49-.2.52-.38.67-.32.37-.51.52-.71-.1-.89.05-.1.64-.29.79-.62,0-.81.16.11.89-.07,1.04-.78-.18-.97-.03.01.76-.17.92-.65-.02-.83.14-.12.6-.3.76-.67-.04-.85.11-.34.34-.52.5-.23.47-.42.63-.56.09-.74.25-.03.7-.21.86-.45.22-.63.38-.43.24-.61.4-.32.37-.5.53-.25.44-.43.61-.73-.09-.91.07-.18.52-.36.68-.53.14-.71.3.09.82-.09.98-.89-.02-1.07.15c-.07.33.17.4.17.74s-.16.34-.16.68.14.34.14.68-.01.34-.01.68.16.34.16.68-.21.34-.21.68S0,119.61,0,119.96s.11.39.22.71c.18-.17.62-.17.79-.33s.43-.24.61-.41-.13-.85.04-1.01.38-.3.55-.46.53-.13.71-.3.12-.58.3-.74.45-.22.63-.38.75.11.93-.05.24-.46.41-.62.34-.35.52-.51.08-.64.26-.8.42-.26.6-.42.74.11.92-.05.15-.56.33-.72.1-.62.28-.77.79.17.97.02-.02-.76.16-.92.63,0,.82-.16.38-.29.56-.45.15-.56.34-.72.74.13.92-.03-.05-.8.14-.96.46-.2.65-.35.44-.22.63-.37.52-.13.71-.28.45-.21.63-.36.21-.5.39-.66.55-.09.74-.24.37-.31.55-.46.24-.47.43-.62.22-.49.41-.64.25-.45.44-.6.42-.24.61-.39.34-.35.52-.5.39-.28.58-.43.69.1.88-.05.46-.19.65-.34.2-.53.39-.68.45-.2.65-.34.22-.51.41-.65.31-.39.5-.53.54-.08.73-.22.32-.38.51-.52.57-.04.76-.18.12-.66.31-.8.54-.07.73-.22.39-.28.58-.42.16-.6.36-.74.62.05.82-.09.23-.5.43-.64.44-.22.63-.36.51-.12.7-.26.21-.54.41-.68.34-.36.54-.5.51-.11.71-.25.73.22.93.08.02-.84.22-.97.71.2.91.06.06-.79.26-.92.77.3.97.17.27-.47.47-.6.35-.35.55-.48.45-.19.65-.32.48-.14.69-.27.31-.41.51-.54.42-.24.62-.37.52-.07.73-.2.31-.41.51-.54.43-.22.64-.34.42-.23.63-.35.53-.06.73-.18.1-.77.3-.89.68.2.88.07.3-.43.51-.56.52-.06.73-.18.37-.33.57-.45.35-.35.56-.47.49-.12.7-.23.26-.52.47-.64.61.11.82-.01.47-.14.68-.25.31-.42.52-.54.48-.12.69-.23.15-.74.36-.85.49-.1.7-.22.34-.4.55-.51.52-.06.73-.17.38-.31.59-.42.44-.2.65-.31.62.15.83.04.53,0,.75-.12.3-.47.51-.58.33-.42.54-.52.39-.3.6-.41.59.12.81.02.54,0,.75-.1.21-.67.43-.78.58.1.8,0,.22-.66.44-.77.48-.11.7-.21.67.31.89.21.36-.36.58-.46.36-.36.58-.46.37-.36.59-.45.34-.41.56-.51.57.1.79,0,.4-.29.62-.38.38-.34.6-.43.62.23.84.13.42-.25.64-.34.33-.45.55-.55.48-.11.7-.2.48-.1.7-.19.52,0,.74-.09.46-.14.68-.23.28-.59.51-.68.44-.19.66-.28.56.12.79.04.36-.4.59-.49.43-.21.66-.29.53.06.76-.03.56.13.78.05.28-.64.5-.72.46-.15.68-.23.57.18.8.1.47-.11.7-.19.31-.58.53-.66.59.24.82.17.35-.47.58-.54.51,0,.74-.07.56.16.79.09.35-.49.57-.56.56.18.79.11.45-.17.68-.24.33-.56.56-.63.4-.34.63-.4.5-.01.73-.08.62.4.85.34.33-.57.56-.64.57.23.8.17.42-.27.65-.33.34-.58.57-.64.49-.05.72-.11.63.51.86.45.45-.16.68-.22.43-.25.66-.31.5.03.73-.03.38-.44.62-.5.49-.03.72-.09.36-.55.59-.61.6.44.83.39.36-.54.6-.6.45-.19.68-.25.51.09.75.04.56.29.79.24.36-.6.59-.65.46-.15.69-.2.45-.2.68-.25.52.14.76.09.53.21.77.16.44-.23.68-.27.4-.43.64-.48.5.04.73,0,.46-.15.7-.19.5.05.73,0,.44-.24.68-.28.44-.26.68-.3.57.46.8.42.44-.24.68-.28.49.03.73-.01.39-.59.62-.63.52.22.76.18.53.29.77.25.43-.34.67-.37.43-.38.66-.41.5.13.74.1.46-.19.69-.23.51.16.74.13.44-.34.67-.38.55.5.79.47.41-.58.64-.61.54.46.78.43.38-.77.62-.8.48-.05.72-.07.51.26.75.24.49.06.73.03.43-.48.67-.5.5.12.73.1.46-.17.7-.19.55.63.79.6.48-.04.71-.06.44-.39.68-.41.48.02.72,0,.46-.17.7-.19.48-.05.71-.07.5.23.74.21.44-.44.68-.46.52.47.76.46.46-.18.7-.2.44-.57.67-.59.48-.04.72-.06.49.2.73.18.46-.3.7-.31.48.04.72.03.48-.07.71-.08.52.61.76.6.45-.51.69-.52.48.08.72.06.46-.34.7-.36.5.37.74.35.48.06.72.05.48-.06.72-.07.48.03.72.02.48-.04.72-.05.48.16.72.15.46-.48.7-.49.48.02.72,0,.49.18.72.18.47-.37.71-.37.48.17.72.16.49.35.73.35.47-.24.71-.25.48.05.72.05.48-.13.71-.13.48-.05.72-.06.49.37.72.36.48-.09.72-.09.48-.04.72-.04.47-.32.71-.32.48-.04.72-.05.48.21.72.21.48-.43.71-.43.48.62.72.61.48-.07.72-.07.48.03.72.02.48-.53.72-.53.48.32.72.32.48.07.72.07.48.24.72.24.48-.56.72-.56.48.51.71.51.48-.43.72-.43.48-.1.72-.1.47.43.71.43.48.22.71.22.48-.45.72-.45.48.08.72.08.47.43.71.43.48-.28.72-.28.48-.1.72-.1.48-.18.72-.17.48.13.71.14.48-.25.72-.24.47.21.71.22.48-.24.72-.23.48.13.71.14.47.55.7.55.48.05.72.06.49-.38.73-.38.48.09.72.1.47.26.71.26.49-.53.73-.52.47.38.71.39.48.06.72.07.48-.15.72-.14.48-.1.72-.09.49-.21.72-.2.45.76.69.77.49-.36.73-.35.48-.09.72-.08.48-.14.72-.13.46.6.7.61.48.03.72.03.5-.53.74-.52.48-.09.72-.08.46.68.69.69.49-.32.73-.31.47.13.71.14.47.29.71.3.5-.49.74-.48.46.53.7.54.5-.47.74-.46.49-.25.73-.24.45.74.69.75.5-.46.74-.46Z"/>
  </g>
</svg>