<svg width="48" height="36" viewBox="0 0 48 36" fill="none" xmlns="http://www.w3.org/2000/svg">
<g clip-path="url(#clip0_207_536)">
<path d="M41.51 0.25H6.49C2.9 0.25 0 3.15 0 6.74V23.76C0 27.34 2.9 30.25 6.49 30.25H7.05L5.27 34.88C5.03 35.49 5.76 36.02 6.27 35.61L12.86 30.26H41.51C45.09 30.26 48 27.36 48 23.77V6.74C48 3.16 45.1 0.25 41.51 0.25Z" fill="#F1A470"/>
<path d="M7.06006 10.42C9.48006 10.42 9.48006 12.42 11.9001 12.42C14.3201 12.42 14.3201 10.42 16.7401 10.42C19.1601 10.42 19.1601 12.42 21.5801 12.42C24.0001 12.42 24.0001 10.42 26.4201 10.42C28.8401 10.42 28.8401 12.42 31.2601 12.42C33.6801 12.42 33.6801 10.42 36.1001 10.42C38.5201 10.42 38.5201 12.42 40.9401 12.42" stroke="#FBF7EC" stroke-miterlimit="10" stroke-linecap="round"/>
<path d="M7.06006 18.38C9.48006 18.38 9.48006 20.38 11.9001 20.38C14.3201 20.38 14.3201 18.38 16.7401 18.38C19.1601 18.38 19.1601 20.38 21.5801 20.38C24.0001 20.38 24.0001 18.38 26.4201 18.38C28.8401 18.38 28.8401 20.38 31.2601 20.38C33.6801 20.38 33.6801 18.38 36.1001 18.38C38.5201 18.38 38.5201 20.38 40.9401 20.38" stroke="#FBF7EC" stroke-miterlimit="10" stroke-linecap="round"/>
</g>
<defs>
<clipPath id="clip0_207_536">
<rect width="48" height="35.5" fill="white" transform="translate(0 0.25)"/>
</clipPath>
</defs>
</svg>
