<?xml version="1.0" encoding="UTF-8"?>
<svg id="_レイヤー_2" data-name="レイヤー_2" xmlns="http://www.w3.org/2000/svg" xmlns:xlink="http://www.w3.org/1999/xlink" viewBox="0 0 291.52 124.54">
  <defs>
    <style>
      .cls-1, .cls-2, .cls-3 {
        fill: none;
      }

      .cls-2 {
        stroke-linejoin: round;
      }

      .cls-2, .cls-3 {
        stroke: #fff;
      }

      .cls-3 {
        stroke-miterlimit: 10;
      }

      .cls-4 {
        fill: #e4b861;
      }

      .cls-5 {
        clip-path: url(#clippath-1);
      }

      .cls-6 {
        fill: #fff;
      }

      .cls-7 {
        clip-path: url(#clippath);
      }
    </style>
    <clipPath id="clippath">
      <path class="cls-1" d="M172.01,88.99l-7.72-8.56,7.69-8.58c.17-.19.17-.47,0-.66l-7.72-8.56,7.69-8.58c.17-.19.17-.47,0-.66l-7.72-8.55,7.69-8.58c.17-.19.17-.47,0-.66l-7.72-8.55,7.69-8.58c.17-.19.17-.47,0-.66l-7.72-8.56,6.94-9.24h-7.56S0,0,0,0v98.64h163.91v-.19s.12.11.12.11l7.98-8.92c.17-.19.17-.47,0-.66Z"/>
    </clipPath>
    <clipPath id="clippath-1">
      <path class="cls-1" d="M202.94,15.58l5.25,10.26-9.64,6.31c-.21.14-.28.41-.17.64l5.25,10.26-9.64,6.31c-.21.14-.28.41-.17.64l5.25,10.25-9.64,6.31c-.21.14-.28.41-.17.64l5.25,10.25-9.64,6.31c-.21.14-.28.41-.17.64l5.25,10.26-9.09,7.14,7.31,1.94,77.9,20.8,25.45-95.3-78.25-20.89-.05.18-.09-.14-10.01,6.56c-.21.14-.28.41-.17.64Z"/>
    </clipPath>
  </defs>
  <g id="_レイヤー_1-2" data-name="レイヤー_1">
    <g>
      <g class="cls-7">
        <path class="cls-4" d="M172.01,88.99l-7.72-8.56,7.69-8.58c.17-.19.17-.47,0-.66l-7.72-8.56,7.69-8.58c.17-.19.17-.47,0-.66l-7.72-8.55,7.69-8.58c.17-.19.17-.47,0-.66l-7.72-8.55,7.69-8.58c.17-.19.17-.47,0-.66l-7.72-8.56,6.94-9.24h-7.56S0,0,0,0v98.64h163.91v-.19s.12.11.12.11l7.98-8.92c.17-.19.17-.47,0-.66Z"/>
        <line class="cls-3" x1="19.44" y1="10.29" x2="167.61" y2="10.29"/>
        <line class="cls-3" x1="19.44" y1="89.02" x2="173.33" y2="89.02"/>
        <polygon class="cls-6" points="12.1 5.66 7.94 10.29 12.1 14.91 16.26 10.29 12.1 5.66"/>
        <polygon class="cls-6" points="12.1 84.4 7.94 89.02 12.1 93.65 16.26 89.02 12.1 84.4"/>
        <line class="cls-2" x1="12.1" y1="18.39" x2="12.1" y2="81.01"/>
        <g>
          <path class="cls-6" d="M45.67,45.45c0,.57-1.23,1.07-1.4.6-.87-2.6-1.73-4.03-3.17-4.03h-3.93v14.93c0,.53,2.03.53,3.53.57.53,0,.3,1.67-.3,1.67h-.07c-2.77-.13-6.6-.13-10.63.03-.43,0-.17-1.4.2-1.43,2.6-.23,3.47-.43,3.47-1.4v-14.36h-3.87c-1.43,0-2.33,1.43-3.2,4.03-.17.47-1.4-.03-1.4-.43.17-1.63.5-3.33.8-5.07.03-.23.2-.43.53-.43h.07c3.6.17,6.47.2,9,.2s5.33-.07,9-.2c.37,0,.53.13.6.43.33,1.6.6,3.23.77,4.83v.07Z"/>
          <path class="cls-6" d="M56.63,58.21c0,.43-.2.97-.6.97h-.07c-.7-.03-4.47-.2-8.1,0-.43,0-.17-1.27.2-1.33,1.37-.2,2.13-.4,2.13-1.37v-13.96c0-.87-.87-.87-2.33-.9-.2,0-.3-.2-.3-.53,0-.47.23-.97.6-.97h.07c.57.03,4.47.2,8.1,0,.43,0,.17,1.27-.2,1.33-1.37.2-2.13.4-2.13,1.37v13.96c0,.87.87.87,2.33.9.2,0,.3.23.3.53Z"/>
          <path class="cls-6" d="M78.32,55.61c0,.2-.03.37-.2.57-1.43,1.73-4,3.4-8.5,3.4-5.17,0-10.26-3.17-10.26-9.63,0-5.3,3.47-10.3,11.26-10.3,2.93,0,5.33.83,6.3,1.4.33.2.5.53.63,1,.2.7.43,2.4.5,3.43.03.43-1,.73-1.17.43-1.73-3.13-4.07-4.5-7.4-4.5s-5.73,2.47-5.73,7.27c0,6.33,3.53,8.8,7.3,8.8,2.53,0,4.7-1.13,6.33-2.83.17-.17.93.33.93.97Z"/>
          <path class="cls-6" d="M88.55,59.18c-2.47-.13-5.03-.13-7.4,0-.43.03-.17-1.27.2-1.33.93-.2,1.87-.4,1.87-1.37v-13.96c0-.87-.87-.87-2.07-.9-.2,0-.3-.2-.3-.53,0-.43.2-.97.6-.97h.07c.5.03,4.37.2,7.63,0,.43,0,.17,1.27-.2,1.33-.93.2-1.93.4-1.93,1.37v14.3c0,.53.7.53,1.9.57.53,0,.33,1.53-.37,1.5ZM101.81,57.61c0,.1-.03.2-.07.23-.87.97-2.5,1.67-4.07,1.67-1.07,0-2.1-.33-2.8-1.13l-6.27-7.07c-.87-1-.93-1.43-.17-2.2l6.67-6.93c.4-.53-.4-.53-1.57-.57-.53,0-.33-1.5.3-1.5h.07c2.63.13,4.57.13,6.77,0,.43,0,.17,1.27-.2,1.33-1.1.2-2.1.4-3.07,1.37l-6.17,6.06,6.47,7c1.1,1.17,2.8,1.33,3.83,1.23.17-.03.27.27.27.5Z"/>
          <path class="cls-6" d="M121.2,54.18l-.03.13-1.27,4.03c-.23.73-.67.83-1.1.83-5.43-.1-12.7-.1-15.56,0-.43,0-.17-1.27.2-1.33.93-.2,1.87-.4,1.87-1.37v-13.96c0-.87-.87-.87-2.07-.9-.2,0-.3-.23-.3-.53,0-.43.23-.97.67-.97,4.97.1,9.96.1,14.93,0,.27,0,.5.23.53.43l.57,3.5c.1.67-.93,1.2-1.13.7-1.1-2.2-2.4-2.7-3.27-2.8-1.3-.17-3.8-.23-6.13.07v6.93l5.63-.03c.9,0,1.33-.93,1.6-1.97.07-.3,1.13-.27,1.13.17v4.8c0,.67-1.27.33-1.3.1-.2-1.13-.73-1.4-2.1-1.4h-4.97v5.93c0,.57.1.83,1.03.87,2.83.07,4.33.03,5.73-.13,1.73-.2,2.8-1.47,4.03-3.7.2-.37,1.3,0,1.3.6Z"/>
          <path class="cls-6" d="M143.69,45.45c0,.57-1.23,1.07-1.4.6-.87-2.6-1.73-4.03-3.17-4.03h-3.93v14.93c0,.53,2.03.53,3.53.57.53,0,.3,1.67-.3,1.67h-.07c-2.77-.13-6.6-.13-10.63.03-.43,0-.17-1.4.2-1.43,2.6-.23,3.47-.43,3.47-1.4v-14.36h-3.87c-1.43,0-2.33,1.43-3.2,4.03-.17.47-1.4-.03-1.4-.43.17-1.63.5-3.33.8-5.07.03-.23.2-.43.53-.43h.07c3.6.17,6.47.2,9,.2s5.33-.07,9-.2c.37,0,.53.13.6.43.33,1.6.6,3.23.77,4.83v.07Z"/>
        </g>
      </g>
      <g class="cls-5">
        <path class="cls-4" d="M202.94,15.58l5.25,10.26-9.64,6.31c-.21.14-.28.41-.17.64l5.25,10.26-9.64,6.31c-.21.14-.28.41-.17.64l5.25,10.25-9.64,6.31c-.21.14-.28.41-.17.64l5.25,10.25-9.64,6.31c-.21.14-.28.41-.17.64l5.25,10.26-9.09,7.14,7.31,1.94,77.9,20.8,25.45-95.3-78.25-20.89-.05.18-.09-.14-10.01,6.56c-.21.14-.28.41-.17.64Z"/>
        <g>
          <path class="cls-6" d="M222.29,83.84c.16.04.36.18.35.28-.09.66-.07.97.25,1.08l6.46,1.71c.22.06.28.7.19,1.01-.02.08-.05.15-.1.16l-7.54,3.41,5.18,1.38c.09.02.23-.23.5-1.17.05-.19.71.07.62.35-.31.96-.54,1.84-.78,2.91-.02.07-.09.08-.19.05-.16-.04-.37-.19-.36-.28.08-.63.07-.9-.33-1l-5.64-1.51c-.35-.09-.41.12-.57.66-.06.22-.65-.03-.58-.28v-.03c.12-.36.21-.71.3-1.05.09-.34.18-.66.24-.96.02-.07.05-.1.11-.13l6.79-3.07-4.61-1.23c-.35-.09-.45.26-.67,1.03-.06.22-.7-.04-.63-.3v-.03c.31-.92.52-1.72.79-2.94.02-.07.11-.07.2-.05Z"/>
          <path class="cls-6" d="M230.94,82.4c-.55,1.88-1.98,2.54-3.54,2.13-1.31-.35-2.58-1.68-1.98-3.92.54-2.02,2.02-2.61,3.48-2.22,1.52.4,2.66,1.71,2.07,3.92l-.03.09ZM225.96,81.1c-.24.91.44,1.51,1.55,1.79,1.69.42,2.64-.15,2.88-.96.27-.91-.39-1.6-1.65-1.92-1.63-.42-2.57.27-2.78,1.08Z"/>
          <path class="cls-6" d="M231.36,77.62s-.07.03-.12.01c-.07-.02-.14-.07-.16-.11-.11-.35-.38-.84-.65-1.16-.04-.06-.04-.11-.03-.17.02-.08.07-.14.13-.17.43-.13.87-.49,1.1-.71.02-.02.06-.03.12-.01.08.02.15.08.19.17.17.46.33.76.6,1.12.04.06.05.13.04.2-.01.04-.04.08-.07.1-.37.13-.89.47-1.15.74Z"/>
          <path class="cls-6" d="M233.81,69.58c.16.04.34.18.31.29-.36,1.18-.76,2.67-1.07,3.99v.03c-.07.22-.6-.1-.57-.28.15-.71.24-1.34-.16-1.45l-4.74-1.26c-.26-.07-.3-.07-.35.12-.05.18-.08.52-.19,1.15-.03.18-.24.24-.4.2-.11-.03-.19-.09-.19-.2-.05-.96-.29-1.76-.62-2.5-.03-.05-.04-.14-.01-.22.07-.27.35-.59.52-.51.42.17.8.32,1.23.43l5.16,1.38c.41.11.56-.34.81-1.06.03-.11.15-.13.29-.1Z"/>
          <path class="cls-6" d="M234.09,61.88s.03,0,.06.03l1.28.91c.39.28.47.37.4.63l-.02.07c-.4,1.27-.84,2.88-1.33,4.98-.02.08-.18.1-.33.06-.08-.02-.17-.07-.23-.13-1.06-1.24-2.14-4.76-3.98-5.23-1.02-.26-1.6.36-1.81,1.14-.16.6-.07,1.17.18,1.65.12.22-.46.66-.62.37-.47-.81-.6-1.88-.38-2.71.36-1.35,1.33-2.47,2.87-2.1,2.08.5,2.82,3.87,3.62,5.17l.57-2.63c.09-.47-.01-1.1-.62-1.76-.13-.15.12-.49.33-.43Z"/>
          <path class="cls-6" d="M235.61,55.1c1.99.53,2.46,2.63,1.89,4.75-.16.58-.38,1.15-.67,1.69-.05.09-.13.11-.21.09-.2-.05-.42-.33-.38-.43.69-1.77.81-4.06-.84-4.5-1.27-.34-1.99.41-2.09,2.36-.02.29-.19.33-.36.28-.42-.11-.46-.25-.43-.49.16-1.75-.28-2.54-1.05-2.73-.58-.16-1.19.17-1.4.96-.16.58-.07,1.24.12,1.84.09.26-.5.47-.63.28-.48-.88-.5-1.92-.25-2.86v-.03c.39-1.45,1.47-2,2.39-1.75.81.2,1.42.87,1.44,1.98.53-1.26,1.59-1.66,2.48-1.42Z"/>
          <path class="cls-6" d="M237.02,48.71l.34-1.29c.02-.08.13-.1.25-.06.19.05.43.23.39.38l-.3,1.14.85.23c.39.1.46-.17.7-.78.08-.21.61.06.57.21-.1.34-.3,1.02-.5,1.75-.16.59-.32,1.24-.44,1.74v.03c-.07.24-.57-.06-.54-.24.14-.8.2-1.18-.25-1.3l-.77-.21-.97,3.67c-.04.13-.25.22-.42.18-.05-.01-.11-.04-.15-.08-1.51-1.61-3.58-4.36-4.36-5.64-.04-.07-.02-.31.05-.55.08-.3.23-.6.39-.55.52.15.98.29,1.43.41l3.73.98ZM236.65,50.14l-3.72-.98c.76,1.07,2.05,2.74,2.98,3.83l.74-2.85Z"/>
          <path class="cls-6" d="M239.39,40.85c2.15.57,2.53,2.57,1.98,4.63-.15.57-.38,1.15-.66,1.7-.06.13-.17.14-.26.12-.19-.05-.37-.26-.33-.33.81-2.21.76-4.04-.9-4.49-1.11-.3-1.86.13-2.16,1.24-.12.45-.16.99-.08,1.51.02.19-.29.56-.52.44l-3.19-1.51c-.34-.13-.51-.21-.38-.7l1.03-3.86c.04-.16.06-.23.18-.2.12.03.32.16.73.41.29.18.28.29.25.43l-.88,3.29,2,.98c.01-.55.12-1.09.24-1.55.49-1.83,1.7-2.46,2.96-2.12Z"/>
          <path class="cls-6" d="M235.14,32.43c.07-.27.59-.32.61-.13.22,2.8,1.22,4.76,3.8,5.41,1.71.43,2.73-.2,2.99-1.15.25-.93-.5-1.6-1.57-1.88-.54-.14-2.02-.24-2.38.99-.08.31-.09.56-.09.82,0,.28-.52.15-.56-.03-.11-.48-.06-1.02.08-1.49.45-1.59,1.67-2.29,3.19-1.89,1.49.4,2.46,1.87,1.92,3.88-.55,2.06-2.17,2.8-3.96,2.33h-.05c-2.94-.8-4.3-3.63-3.99-6.84v-.03Z"/>
        </g>
        <polygon class="cls-6" points="278.98 31.36 273.77 34.75 276.59 40.3 281.8 36.9 278.98 31.36"/>
        <polygon class="cls-6" points="258.67 107.43 253.46 110.83 256.28 116.37 261.49 112.97 258.67 107.43"/>
        <line class="cls-3" x1="199.77" y1="15" x2="272.17" y2="34.33"/>
        <line class="cls-3" x1="179.46" y1="91.07" x2="251.85" y2="110.4"/>
        <line class="cls-2" x1="275.69" y1="43.66" x2="259.54" y2="104.15"/>
      </g>
    </g>
  </g>
</svg>